 <svg  version="1.0" xmlns="http://www.w3.org/2000/svg"  width="192.000000pt" height="192.000000pt" viewBox="0 0 192.000000 192.000000"  preserveAspectRatio="xMidYMid meet">  <g transform="translate(0.000000,192.000000) scale(0.050000,-0.050000)" fill="#5830a1" stroke="none"> <path d="M1630 3811 c-1262 -200 -1980 -1537 -1445 -2694 679 -1469 2771 -1476 3467 -10 652 1373 -521 2941 -2022 2704z m-475 -868 c188 -101 240 -362 123 -620 -81 -179 -83 -176 107 -191 524 -42 715 -175 715 -498 0 -346 -368 -700 -805 -775 -358 -61 -877 185 -928 441 -13 63 -13 63 99 -44 385 -366 877 -388 1242 -54 503 459 119 983 -558 761 -329 -109 -363 -138 -379 -338 -38 -455 -191 -432 -191 29 1 991 219 1479 575 1289z m1229 -638 c14 -334 148 -740 362 -1094 173 -287 267 -254 405 144 89 259 157 533 200 815 49 325 46 313 85 306 80 -17 -13 -731 -148 -1138 -119 -357 -248 -519 -389 -488 -294 65 -818 1441 -628 1651 83 92 103 57 113 -196z"/> <path d="M941 2782 c-60 -84 -120 -378 -121 -588 l0 -177 65 47 c199 141 299 301 311 496 13 231 -148 372 -255 222z"/> </g> </svg> 